<svg width="139" height="84" viewBox="0 0 139 84" fill="none" xmlns="http://www.w3.org/2000/svg">
<path d="M4.548 43H0.324V1.528H4.612V22.776L9.156 17.464C12.1853 13.9227 15.1933 10.3813 18.18 6.84L22.724 1.528H27.396L10.756 21.176L29.892 43H24.58L8.196 24.184L4.548 28.472V43Z" fill="#4BA678"/>
<path d="M60.126 43H36.574V1.528H59.422L58.974 5.112H40.862V19.768H56.862V23.352H40.798V39.416H60.126V43Z" fill="#FED966"/>
<path d="M79.0595 43L65.4275 1.528H70.2275L81.6835 37.816L93.3315 1.528H97.9395L84.3715 43H79.0595Z" fill="#F59536"/>
<path d="M121.372 0.695999C127.814 0.695999 132.273 2.18933 134.748 5.176C137.265 8.16267 138.524 13.752 138.524 21.944C138.524 26.0827 138.033 29.624 137.052 32.568C136.07 35.512 134.705 37.752 132.956 39.288C129.756 42.1467 125.894 43.576 121.372 43.576C115.185 43.576 111.025 42.4453 108.892 40.184C106.716 37.8373 105.308 34.5947 104.668 30.456C104.326 28.0667 104.156 25.1013 104.156 21.56C104.156 17.976 104.689 14.7333 105.756 11.832C106.822 8.93067 108.23 6.712 109.98 5.176C113.393 2.18933 117.19 0.695999 121.372 0.695999ZM120.156 4.664C116.273 4.664 113.372 6.02933 111.452 8.76C109.574 11.448 108.635 15.864 108.635 22.008C108.635 27.8107 109.361 32.12 110.812 34.936C112.006 37.2827 114.182 38.7333 117.34 39.288C118.62 39.544 120.262 39.672 122.268 39.672C126.278 39.672 129.244 38.2853 131.164 35.512C133.084 32.7387 134.044 28.216 134.044 21.944C134.044 17.08 133.574 13.3893 132.636 10.872C132.081 9.37867 131.292 8.20533 130.268 7.352C128.134 5.56 124.764 4.664 120.156 4.664Z" fill="#F73445"/>
<path d="M6.02188 80C8.07521 80.7733 10.2885 81.16 12.6619 81.16C15.0352 81.16 16.7152 80.8133 17.7019 80.12C18.6885 79.4 19.1819 78.08 19.1819 76.16C19.1819 75.1467 18.8619 74.3067 18.2219 73.64C17.6085 73.0533 17.0485 72.6267 16.5419 72.36L15.1019 71.64C14.6485 71.4267 14.0885 71.1733 13.4219 70.88C12.7819 70.5867 12.2219 70.3333 11.7419 70.12C11.2619 69.88 10.6085 69.5467 9.78188 69.12C8.95521 68.6667 8.36854 68.2933 8.02188 68C7.67521 67.68 7.28854 67.2933 6.86188 66.84C6.11521 66.0133 5.74188 64.9467 5.74188 63.64C5.74188 61.4267 6.50188 59.7067 8.02188 58.48C9.54188 57.2267 11.5019 56.6 13.9019 56.6C16.3019 56.6 18.5285 56.9333 20.5819 57.6L20.0619 59.6C18.4085 59.0667 16.5019 58.8 14.3419 58.8C12.2085 58.8 10.7019 59.1467 9.82188 59.84C8.94188 60.5067 8.50188 61.6667 8.50188 63.32C8.50188 64.5467 9.12854 65.56 10.3819 66.36C11.3952 67 12.9552 67.7867 15.0619 68.72C17.1685 69.6267 18.5952 70.3333 19.3419 70.84C21.2352 72.12 22.1952 73.8533 22.2219 76.04C22.2219 80.92 19.0619 83.36 12.7419 83.36C10.1019 83.36 7.63521 82.9733 5.34188 82.2L6.02188 80ZM24.9288 59.32V57.08H42.0888V59.32H34.8088V83H32.1688V59.32H24.9288ZM55.0213 56.56C59.0479 56.56 61.8346 57.4933 63.3813 59.36C64.9546 61.2267 65.7413 64.72 65.7413 69.84C65.7413 72.4267 65.4346 74.64 64.8213 76.48C64.2079 78.32 63.3546 79.72 62.2613 80.68C60.2613 82.4667 57.8479 83.36 55.0213 83.36C51.1546 83.36 48.5546 82.6533 47.2213 81.24C45.8613 79.7733 44.9813 77.7467 44.5813 75.16C44.3679 73.6667 44.2613 71.8133 44.2613 69.6C44.2613 67.36 44.5946 65.3333 45.2613 63.52C45.9279 61.7067 46.8079 60.32 47.9013 59.36C50.0346 57.4933 52.4079 56.56 55.0213 56.56ZM54.2613 59.04C51.8346 59.04 50.0213 59.8933 48.8213 61.6C47.6479 63.28 47.0612 66.04 47.0612 69.88C47.0612 73.5067 47.5146 76.2 48.4213 77.96C49.1679 79.4267 50.5279 80.3333 52.5013 80.68C53.3013 80.84 54.3279 80.92 55.5813 80.92C58.0879 80.92 59.9413 80.0533 61.1413 78.32C62.3413 76.5867 62.9413 73.76 62.9413 69.84C62.9413 66.8 62.6479 64.4933 62.0613 62.92C61.7146 61.9867 61.2213 61.2533 60.5813 60.72C59.2479 59.6 57.1413 59.04 54.2613 59.04ZM76.3466 58C77.4666 57.4133 78.5066 57.04 79.4666 56.88C80.4266 56.6933 81.6666 56.6 83.1866 56.6C84.7066 56.6 86.5732 56.96 88.7866 57.68L88.1466 59.8C85.7466 59.32 83.9599 59.08 82.7866 59.08C81.6399 59.08 80.6532 59.1467 79.8266 59.28C78.9999 59.3867 78.1466 59.6533 77.2666 60.08C76.4132 60.5067 75.7332 61.1067 75.2266 61.88C74.0799 63.64 73.5066 66.3333 73.5066 69.96C73.5066 74.4133 74.3066 77.4 75.9066 78.92C76.6799 79.64 77.4799 80.1467 78.3066 80.44C79.1332 80.7067 80.0399 80.84 81.0266 80.84C82.0399 80.84 82.7866 80.8133 83.2666 80.76C84.8132 80.6533 86.3466 80.1467 87.8666 79.24L88.7866 81.4C86.8666 82.7067 84.3599 83.36 81.2666 83.36C80.0666 83.36 79.0266 83.28 78.1466 83.12C77.2666 82.9867 76.3332 82.6667 75.3466 82.16C74.3599 81.6267 73.5466 80.8933 72.9066 79.96C72.2932 79.0267 71.7732 77.72 71.3466 76.04C70.9199 74.36 70.7066 72.3867 70.7066 70.12C70.7066 67.8267 70.9732 65.84 71.5066 64.16C72.0399 62.48 72.6932 61.1733 73.4666 60.24C74.2666 59.3067 75.2266 58.56 76.3466 58ZM96.655 83H94.015V57.08H96.695V70.36L99.535 67.04C101.428 64.8267 103.308 62.6133 105.175 60.4L108.015 57.08H110.935L100.535 69.36L112.495 83H109.175L98.935 71.24L96.655 73.92V83ZM115.631 80C117.685 80.7733 119.898 81.16 122.271 81.16C124.645 81.16 126.325 80.8133 127.311 80.12C128.298 79.4 128.791 78.08 128.791 76.16C128.791 75.1467 128.471 74.3067 127.831 73.64C127.218 73.0533 126.658 72.6267 126.151 72.36L124.711 71.64C124.258 71.4267 123.698 71.1733 123.031 70.88C122.391 70.5867 121.831 70.3333 121.351 70.12C120.871 69.88 120.218 69.5467 119.391 69.12C118.565 68.6667 117.978 68.2933 117.631 68C117.285 67.68 116.898 67.2933 116.471 66.84C115.725 66.0133 115.351 64.9467 115.351 63.64C115.351 61.4267 116.111 59.7067 117.631 58.48C119.151 57.2267 121.111 56.6 123.511 56.6C125.911 56.6 128.138 56.9333 130.191 57.6L129.671 59.6C128.018 59.0667 126.111 58.8 123.951 58.8C121.818 58.8 120.311 59.1467 119.431 59.84C118.551 60.5067 118.111 61.6667 118.111 63.32C118.111 64.5467 118.738 65.56 119.991 66.36C121.005 67 122.565 67.7867 124.671 68.72C126.778 69.6267 128.205 70.3333 128.951 70.84C130.845 72.12 131.805 73.8533 131.831 76.04C131.831 80.92 128.671 83.36 122.351 83.36C119.711 83.36 117.245 82.9733 114.951 82.2L115.631 80Z" fill="#92B1F9"/>
</svg>
